<svg version="1.1" xmlns="http://www.w3.org/2000/svg" xmlns:xlink="http://www.w3.org/1999/xlink" x="0px" y="0px"
	 width="388.03px" height="485.91px" viewBox="0 0 388.03 485.91"
	 style="overflow:visible;enable-background:new 0 0 388.03 485.91;" xml:space="preserve">
<defs>
</defs>
<g id="LV3KjO.tif_1_">
	<g>
		<path d="M0.06,64.77C3.37,35.06,35.61-0.53,77.23,0.01c78.06,1.01,156.15,0.9,234.21,0.04c39.53-0.44,76.99,36.73,76.58,76.51
			c-0.72,69.39-0.2,138.79-0.2,208.19c0,58.02-0.02,116.04,0.03,174.06c0.01,6.66-1.31,12.79-5.6,18.04
			c-8.6,10.53-22.58,11.99-34.56,3.45c-49.8-35.54-99.58-71.09-149.26-106.79c-3.66-2.63-5.97-2.77-9.73-0.06
			c-49.51,35.61-99.15,71.04-148.79,106.48c-16.12,11.51-33.37,6-39.81-12.57C-0.05,466.86-0.01,65.46,0.06,64.77z M339.11,414.19
			c0-3.42,0-5.5,0-7.58c0-109.75,0-219.5,0-329.26c0-22.2-6.11-28.34-28.34-28.34C232.53,49,154.29,49,76.05,49.04
			c-3.59,0-7.21,0.17-10.77,0.61c-8.83,1.07-14.52,6.32-16.23,15c-0.62,3.14-1.03,6.38-1.03,9.57
			c-0.05,111.65-0.04,223.3-0.03,334.94c0,1.38,0.26,2.76,0.44,4.62c2.1-1.44,3.66-2.48,5.18-3.57
			c41.28-29.5,82.55-59.03,123.86-88.51c11.08-7.91,21.68-7.8,32.5-0.02c36.91,26.51,73.84,52.98,110.77,79.46
			C326.53,405.29,332.36,409.4,339.11,414.19z"/>
	</g>
</g>
</svg>
