<svg version="1.1" xmlns="http://www.w3.org/2000/svg" xmlns:xlink="http://www.w3.org/1999/xlink" x="0px" y="0px" width="405.6px"
	 height="507.93px" viewBox="0 0 405.6 507.93" style="overflow:visible;enable-background:new 0 0 405.6 507.93;"
	 xml:space="preserve">
<defs>
</defs>
<g id="LV3KjO.tif_1_">
	<g>
		<path d="M0.07,67.7C3.53,36.64,37.23-0.56,80.73,0.01c81.59,1.06,163.22,0.94,244.82,0.04c41.32-0.46,80.48,38.39,80.05,79.97
			c-0.75,72.53-0.21,145.08-0.21,217.62c0,60.65-0.02,121.29,0.03,181.94c0.01,6.96-1.37,13.37-5.85,18.86
			c-8.99,11.01-23.6,12.53-36.13,3.61c-52.06-37.15-104.09-74.31-156.02-111.63c-3.83-2.75-6.24-2.9-10.17-0.06
			c-51.75,37.22-103.64,74.26-155.53,111.3c-16.85,12.03-34.88,6.27-41.61-13.14C-0.05,488-0.01,68.42,0.07,67.7z M354.47,432.94
			c0-3.57,0-5.75,0-7.92c0-114.72,0-229.44,0-344.17c0-23.21-6.39-29.62-29.62-29.62c-81.78-0.01-163.57-0.01-245.35,0.03
			c-3.75,0-7.54,0.18-11.26,0.64c-9.23,1.12-15.18,6.61-16.96,15.68c-0.65,3.28-1.08,6.67-1.08,10
			c-0.05,116.71-0.04,233.41-0.03,350.11c0,1.44,0.27,2.89,0.46,4.83c2.2-1.51,3.83-2.59,5.41-3.73
			c43.15-30.84,86.29-61.7,129.47-92.52c11.58-8.27,22.66-8.15,33.97-0.02c38.58,27.71,77.18,55.38,115.79,83.06
			C341.32,423.64,347.41,427.94,354.47,432.94z"/>
	</g>
</g>
<g>
	<g>
		<path d="M227.94,309.39h-50.06v-89.36H91.29v-51.32h86.59V79.35h50.06v89.36h86.36v51.32h-86.36V309.39z"/>
	</g>
</g>
</svg>
