<!-- Generator: Adobe Illustrator 24.1.0, SVG Export Plug-In  -->
<svg version="1.1" xmlns="http://www.w3.org/2000/svg" xmlns:xlink="http://www.w3.org/1999/xlink" x="0px" y="0px"
	 width="514.92px" height="399.83px" viewBox="0 0 514.92 399.83" style="enable-background:new 0 0 514.92 399.83;"
	 xml:space="preserve">
<style type="text/css">
	.st0{fill:#ADADAD;}
</style>
<defs>
</defs>
<g id="VN1J9q_2_">
	<g>
		<path class="st0" d="M1.78,317.06c-0.39-1.53-0.78-3.06-1.34-5.22c6.63,0.35,12.54,0.66,18.45,0.97c0.03-0.32,0.06-0.65,0.09-0.97
			c-5.82-0.41-11.63-0.81-17.44-1.22c-0.47-3.52-0.46-3.73,2.54-3.66c7.09,0.17,14.17,0.69,21.26,0.84
			c7.51,0.15,15.02,0.03,22.53,0.03c0-0.63,0-1.25,0-1.88c-3.64,0-7.28,0-10.91,0c-11-0.01-21.99-0.03-32.99-0.01
			c-2.5,0-4.11-0.25-3.24-3.65c0.63-2.43,0.12-5.15,0.12-8.22c4.01,0,7.93,0,11.85,0c0.02-0.33,0.03-0.65,0.05-0.98
			c-3.77,0-7.53,0-11.25,0c-1.34-3.24-0.52-4.22,2.57-4.14c6.28,0.18,12.58,0.05,18.88-0.84c-7.14,0-14.27,0-21.26,0
			c-2.15-7.1-2.15-7.06,4.53-7.26c6.98-0.21,13.95-0.51,20.89-1.51c-6.12,0-12.24-0.03-18.37,0.02c-1.64,0.02-3.33,0.63-4.9,0.36
			c-1.18-0.2-2.2-1.37-3.29-2.11c1.16-0.55,2.32-1.56,3.48-1.57c12.87-0.11,25.74-0.07,38.61-1.23c-14.03,0-28.06,0-42.09,0
			c-0.18-0.59-0.37-1.17-0.55-1.76c1.42-0.52,2.84-1.44,4.28-1.48c5.43-0.18,10.88-0.07,16.32-0.07c0.01-0.54,0.02-1.08,0.03-1.61
			c-5.26,0-10.52,0.09-15.77-0.06c-1.44-0.04-3.92-0.62-4.06-1.33c-0.3-1.51,0.61-3.26,0.56-4.72c-0.26-3.48-0.53-6.95-0.82-10.84
			c3.56,0,6.33,0,9.1,0c0.01-0.29,0.02-0.57,0.04-0.86c-2.74,0-5.49,0-8.55,0c0-2.25,0-3.97,0-5.93c3.85-0.32,7.63-0.64,11.4-0.96
			c-0.05-0.44-0.1-0.88-0.15-1.32c-3.55,0.39-7.1,0.77-11.16,1.21c0-4.78,0-9.16,0-13.88c31.46,0.85,63.02,1.71,94.57,2.56
			c0.01-0.51,0.02-1.02,0.03-1.53c-31.39-0.81-62.77-1.63-94.68-2.46c-0.09-1.87-0.18-3.59-0.29-5.77c10.46,0,20.63,0,30.8,0
			c0-0.37,0-0.75,0-1.12c-10.07,0-20.14,0-30.48,0c0-2.07,0-3.81,0-5.7c15.51,0,31,0,46.49,0c0.04-0.32,0.07-0.64,0.11-0.95
			c-1.12-0.13-2.23-0.36-3.35-0.37c-13.24-0.13-26.48-0.18-39.72-0.36c-3.38-0.05-4.64-1.92-3.3-5.76c13.23,0,26.7,0,40.16,0
			c0-0.46,0-0.93-0.01-1.39c-13.47,0-26.94,0-40.33,0c-0.74-4.78-0.58-7.62,4.88-5.87c2.06,0.66,4.52,0.11,6.88-0.44
			c-3.92-0.5-7.83-1.01-12.09-1.56c0-5.62-0.15-11.13,0.11-16.63c0.06-1.31,1.46-2.57,1.92-3.32c-0.76-1.4-1.69-3.1-2.86-5.25
			c11.56,0,22,0,32.45,0c0.01-0.19,0.03-0.38,0.04-0.57c-5.27-0.3-10.54-0.71-15.81-0.86c-5.12-0.15-10.25-0.03-15.63-0.03
			c0-2.09,0-3.69,0-6.17c47.03,2.41,94.02,5,141.09,1.8c-5.12,0-10.23,0.01-15.35,0c-18.98-0.05-37.96,0.05-56.94-0.21
			c-9.4-0.13-18.78-1.04-28.17-1.38c-12.41-0.46-24.82-0.78-37.24-1.02c-2.95-0.06-3.72-1.4-3.61-4.03
			c0.29-6.46,0.56-12.92,0.65-19.38c0.17-12.19,0.23-24.38,0.29-36.56c0.06-12.25,0.02-24.51,0.09-36.76
			c0.02-3.24,0.27-6.48,0.46-10.58c113.05,0.67,226.08,1.33,339.12,2c0-0.25,0.01-0.5,0.01-0.76c-8.77,0-17.54,0.17-26.3-0.03
			c-19.58-0.45-39.15-1.38-58.72-1.57c-35.25-0.34-70.51-0.33-105.76-0.38c-41.49-0.06-82.97-0.03-124.46-0.03
			c-7.71,0-15.42,0-24.3,0c0-7.41,0.08-14.25-0.04-21.08c-0.05-3.02,1.07-4.12,4.13-3.98c8.94,0.42,17.88,0.71,26.83,0.9
			c6.69,0.14,13.38,0.03,20.07,0.03c0-0.61-0.01-1.22-0.01-1.83c-16.85,0-33.71,0-50.35,0c0-6.4,0.46-12.18-0.16-17.85
			c-0.41-3.78,0.97-4.3,3.97-4.23c14.79,0.33,29.57,0.82,44.36,0.87c43.91,0.14,87.81,0.13,131.72,0.12
			c14.45,0,28.9-0.19,43.36-0.33c1.17-0.01,2.34-0.31,3.44-1.56c-75.38,0-150.76,0-226.37,0c0-3.26,0-6.02,0-9.51
			c6.99,0,13.71,0.02,20.43,0C38.94,0.25,54.57,0.11,70.2,0.1c15.58-0.01,31.15,0.16,46.73,0.15c12.99-0.01,25.97-0.22,38.96-0.23
			c24.23-0.02,48.47-0.04,72.7,0.09c24.6,0.13,49.21,0.37,73.81,0.69c11.27,0.15,22.54,0.81,33.81,0.88
			c23.73,0.16,47.47-0.03,71.2,0.12c34.48,0.22,68.97,0.59,103.45,1.07c1.39,0.02,3.69,1.62,3.95,2.83
			c0.65,3.04-1.71,3.18-4.15,3.18C480.49,8.8,450.32,8.8,420.15,8.8c-5.62,0-11.25-0.04-16.87,0.07c-1.47,0.03-2.94,0.54-4.27,1.55
			c38.35,0,76.71,0,115.85,0c0,8.03,0.1,15.52-0.14,23c-0.03,0.8-2.01,2.23-3.07,2.21c-8.89-0.1-17.77-0.64-26.66-0.7
			c-4.25-0.03-8.5,0.69-12.74,1.71c13.96,0,27.92,0,41.9,0c0,5.8,0,11.19,0,16.89c-32.16,0-63.51,0-94.87,0c0,0.61,0,1.22-0.01,1.84
			c15.13,0,30.26,0.08,45.38-0.02c15.56-0.1,31.11-0.42,46.67-0.45c1.12,0,3.17,1.54,3.21,2.43c0.28,6.58,0.15,13.18,0.15,20.3
			c-6.81,0-12.65,0-18.48,0c0,0.4,0,0.79,0,1.19c4.97,0,9.94-0.15,14.89,0.11c1.18,0.06,2.28,1.52,3.41,2.33
			c-0.25,0.69-0.51,1.39-0.76,2.08c-20.81,0-41.61,0-62.42,0c0,0.44,0.01,0.88,0.01,1.33c20.71,0,41.43,0,62.83,0
			c0,11.09,0,22.13,0,33.84c-8.8,0-18.16,0-27.53,0c-0.01,0.55-0.02,1.1-0.03,1.66c7.5,0.21,15.01,0.42,22.51,0.63
			c1.33,0.04,2.97-0.4,3.9,0.22c0.97,0.65,1.59,2.3,1.67,3.55c0.03,0.53-1.73,1.7-2.65,1.68c-21.63-0.41-43.25-0.91-64.88-1.46
			c-12.49-0.32-24.97-0.72-37.46-1.22c-1.58-0.06-3.13-0.95-4.69-1.45c0.73-1.69,1.46-3.38,2.33-5.37c-1.33-0.58-5.4,2.03-4.76-3.46
			c-1.84,2.68-3.1,4.52-4.37,6.36c0.21,0.02,1.1-0.13,1.67,0.24c0.96,0.62,1.7,1.56,2.54,2.36c-0.89,0.53-1.77,1.5-2.67,1.52
			c-5.32,0.15-10.64,0.07-15.96,0.07c-0.01,0.45-0.03,0.9-0.04,1.35c5.52,0,11.05-0.11,16.57,0.02c14.23,0.34,28.47,0.72,42.7,1.21
			c15.43,0.53,30.86,1.32,46.3,1.78c7.35,0.22,14.71-0.12,22.07,0c1.17,0.02,2.32,1.12,3.48,1.72c-0.87,1.32-1.63,3.7-2.63,3.8
			c-5.87,0.59-11.79,0.81-17.7,0.87c-11.11,0.11-22.23,0.03-33.35,0.03c0,0.43,0.01,0.85,0.01,1.28c12.52,0,25.05,0.01,37.57-0.01
			c3.83,0,7.69-0.3,11.49,0.01c1.54,0.12,2.98,1.5,4.47,2.3c-1.42,0.88-2.85,2.54-4.26,2.53c-18.26-0.18-36.53-0.76-54.79-0.93
			c-19.73-0.18-39.47-0.04-59.24,0.36c39.23,0.7,78.47,1.39,118.12,2.1c-0.17,2.74-0.33,5.41-0.48,7.94c-20.57,0-40.71,0-60.85,0
			c-0.01,0.35-0.01,0.7-0.02,1.05c20.13,0,40.26,0,60.89,0c0,6.64,0,12.35,0,17.46c-38.36,0-76.21,0-114.05,0
			c-0.01,0.17-0.02,0.33-0.03,0.5c37.82,0.67,75.64,1.35,113.7,2.03c0.15,0.77,0.21,1.75,0.54,2.62c1.23,3.29,0.05,3.92-3.25,3.85
			c-11.6-0.23-23.2-0.09-35.97-0.09c5.68,0.45,10.24,1,14.83,1.14c6.49,0.2,13,0.15,19.49,0.09c4.15-0.03,5.52,2.48,5.53,6
			c0.01,4.11-3.24,2.99-5.51,2.95c-16.35-0.26-32.71-0.62-49.06-0.94c-1.65-0.03-3.29,0-4.95,0.78c7.62,0.39,15.24,0.99,22.87,1.14
			c10.66,0.21,21.33,0.2,31.99,0.04c3.65-0.05,4.6,1.36,4.31,4.76c-0.3,3.52-0.07,7.08-0.07,9.79c-37.03,0-73.31,0-109.58,0
			c36.21,2.34,72.6,0.88,109.06,2.53c0,1.95,0,3.57,0,4.95c-33.91,0-67.69,0-101.47,0c-0.01,0.08-0.02,0.16-0.02,0.23
			c33.69,0.62,67.39,1.25,101.07,1.87c1.66,5.28,0.93,6.23-3.96,5.27c-0.81-0.16-1.64-0.33-2.46-0.34
			c-32.86-0.35-65.71-0.68-98.57-1c-0.46,0-0.93,0.21-1.39,0.32c0,0.5,0,1.01,0,1.51c35.48,0,70.96,0,106.72,0c0,2.83,0,4.24,0,5.32
			c-19.97,0-39.74,0-59.51,0c-0.02,0.18-0.04,0.37-0.07,0.55c1.51,0.09,3.01,0.22,4.52,0.25c17.11,0.36,34.22,0.7,51.33,1.05
			c3.55,0.07,3.55,0.1,3.4,3.58c-14.74,0-29.47,0-44.2,0c0,0.3-0.01,0.61-0.01,0.91c14.67,0,29.33,0,44.34,0c0,3.22,0,5.88,0,8.98
			c-27.76,0-55.59,0-83.43,0c0,0.29-0.01,0.57-0.01,0.85c27.72,0,55.44,0,82.94,0c0.5,1.42,0.77,1.85,0.78,2.3
			c0.03,0.96-0.06,1.92-0.08,2.41c-28.42,0-56.56,0-84.71,0c0,0.44,0,0.89-0.01,1.33c28.08,0,56.15,0,84.59,0
			c0.25,2.56,0.43,4.39,0.62,6.34c-15.4,0-30.18,0-44.96,0c0,0.33,0.01,0.67,0.01,1c14.64,0.5,29.29,1,44.29,1.52
			c0.05,1.14,0.11,2.35,0.16,3.35c-10.39,0-20.42,0-30.45,0c-0.04,0.29-0.08,0.58-0.12,0.87c10.09,0.57,20.17,1.13,30.38,1.7
			c0,13.57,0,27,0,40.49c-28.93-0.61-57.76-1.23-86.6-1.84c-0.01,0.29-0.02,0.59-0.04,0.88c5.21,0.43,10.41,1.14,15.63,1.24
			c22.29,0.45,44.59,0.79,66.89,0.99c3.42,0.03,5.21,0.67,4.02,5.17c-36.04-0.92-72.3-1.85-108.55-2.77
			c-0.01,0.29-0.02,0.57-0.02,0.86c11.18,0.37,22.36,0.78,33.54,1.08c23.92,0.64,47.83,1.19,71.75,1.95
			c1.26,0.04,2.46,1.71,3.69,2.62c-1.33,0.62-2.66,1.78-3.98,1.77c-10.96-0.07-21.91-0.35-32.87-0.59
			c-30.21-0.66-60.43-1.33-90.64-1.99c-1.64-0.04-3.28,0-4.92,0.62c7.5,0.36,14.99,0.97,22.49,1.02c8.76,0.07,17.52-0.56,26.28-0.49
			c9.44,0.08,18.88,0.62,28.32,0.96c17.07,0.61,34.14,1.25,51.22,1.83c3.63,0.12,3.63,0.03,3.94,4.01
			c-26.98-0.82-53.92-1.65-80.85-2.47c-0.01,0.56-0.02,1.12-0.04,1.68c8.96,0,17.93-0.21,26.89,0.05
			c10.59,0.32,21.16,1.1,31.75,1.57c4.82,0.21,9.66,0.24,14.49,0.22c8.4-0.03,8.4-0.08,7.58,9c-2.04,0-4.14,0-6.25,0
			c-1.99,0-3.97,0-5.96,0c-0.02,0.28-0.05,0.55-0.07,0.83c4.12,0.53,8.24,1.07,12.34,1.6c-0.25,2.78-0.25,2.78-6.33,5.1
			c1.92,0.24,3.84,0.48,6.33,0.79c0.09,1.99,0.18,4.06,0.27,6.21c-16.34-0.73-32.1,0.9-47.95,3.04c-11.54,1.56-23.43,0.51-35.16,0.6
			c-18.55,0.15-35.97-6.67-54.08-8.86c-11.76-1.42-23.83-0.28-35.77-0.29c-2.91,0-5.83,0-8.74,0c0,0.41,0,0.82,0,1.23
			c7.36,0,14.8-0.65,22.07,0.18c7.42,0.85,14.79,2.78,21.92,5.05c2.29,0.73,5.6,4.5,5.21,6.08c-0.77,3.15-3.22,7.1-6,8.28
			c-5.99,2.54-12.58,3.9-19.04,5.09c-20.93,3.85-42.12,4.05-63.32,4.46c-13.31,0.26-26.77,0.75-39.86,2.96
			c-11.94,2.02-23.75,4.21-35.86,3.61c-8.76-0.44-17.48-1.44-26.23-2.08c-2.81-0.2-5.64-0.03-8.41,1.12
			c12.2,0.99,24.41,2.85,36.59,2.71c11.18-0.13,22.43-1.84,33.46-3.91c16.39-3.07,32.84-2.97,49.37-2.81
			c18.74,0.18,37.42-0.32,55.99-3.72c10.4-1.91,21.07-2.66,31.66-3.18c20.42-0.99,40.88-1.17,61.3-2.22
			c17.66-0.91,34.91,1.26,52.04,5.15c3.38,0.77,6.78,1.4,10.27,2.11c0,10.54,0,20.94,0,31.75c-170.99-0.97-341.4-1.94-512.4-2.92
			c0-6.32-0.18-12.42,0.2-18.48c0.06-0.89,2.87-2.33,4.36-2.27c10.93,0.41,21.86,1.86,32.76,1.61c20.36-0.46,40.7-1.84,61.08-3.81
			c-1.85,0-3.7-0.06-5.55,0.01c-19.4,0.69-38.79,1.78-58.19,1.97c-10.75,0.11-21.52-1.18-32.26-2.07c-1.08-0.09-2.02-1.77-3.02-2.72
			c0.32-0.53,0.63-1.06,0.95-1.59c6.5,0.88,12.97,2.19,19.5,2.53c12.21,0.64,24.46,1.22,36.66,0.89
			c16.35-0.44,32.61-2.64,49.04-0.24c13.79,2.02,27.56,0.08,41.28-2.02c5.37-0.82,10.92-0.52,16.39-0.76
			c7.04-0.31,14.08-1.05,21.1-0.89c7.31,0.17,14.62,1.03,21.9,1.9c13.76,1.65,27.45,2.02,40.9-1.88c9.41-2.73,18.88-3.4,28.67-3.35
			c15.1,0.07,30.21-0.92,45.3-1.7c8.92-0.46,17.88-0.97,26.72-2.22c9.61-1.36,19.5-2.23,28.63-7.93c-1.03-0.41-1.47-0.77-1.78-0.68
			c-6.24,1.86-12.35,4.81-18.7,5.48c-18.1,1.92-36.28,3.49-54.46,4.09c-15.52,0.51-31.1-1.07-46.62-0.63
			c-8.14,0.23-16.17,3.84-24.31,4.11c-14.25,0.48-28.54-0.52-42.81-0.71c-4.57-0.06-9.14,0.55-13.72,0.7
			c-4.45,0.14-8.92-0.11-13.35,0.16c-7.43,0.44-14.98,0.42-22.22,1.91c-10.8,2.22-21.47,0.31-32.18,0.3c-7.36,0-14.65,0.11-22,0.47
			c-18.21,0.9-36.34,5.46-54.78,2.02c-9.54-1.78-19.31-2.28-30.26-3.5c1.09-2.21,1.9-3.83,2.76-5.59c-0.11-0.08-1.1-0.75-2.08-1.42
			c0.94-0.69,1.81-1.85,2.82-2c7-1.01,14.12-1.4,21.04-2.8c7.17-1.45,14.15-3.81,21.22-5.77c-0.15-0.58-0.31-1.16-0.46-1.74
			c-4.48,1.17-8.91,2.53-13.44,3.48c-8.86,1.85-17.76,3.53-26.67,5.1c-1.4,0.25-2.96-0.41-4.47-0.66
			c10.99-3.26,21.62-6.42,32.25-9.57c0,0-0.15,0.15-0.15,0.15c4.52-0.41,9.05-0.82,13.57-1.22c0.03-0.32,0.07-0.64,0.1-0.96
			c-2.75-0.52-5.52-1.51-8.26-1.47c-6.57,0.09-13.15,0.55-19.7,1.07c-5.08,0.4-10.12,1.26-15.2,1.57c-0.84,0.05-2.37-1.54-2.55-2.56
			c-0.4-2.21-0.03-4.33,3.16-4.38c3.96-0.06,7.92-0.69,11.86-0.51c8.52,0.39,16.87-4.77,25.67,0.02c2.84,1.55,7.24,0.24,10.95-0.36
			c-8.68-1.7-17.22-4.07-26.25-2.62c-7,1.13-14.05,1.94-21.11,2.66c-1.49,0.15-3.09-0.72-4.65-1.12c0.1-0.62,0.19-1.24,0.29-1.86
			c2.55-0.12,5.1-0.23,7.64-0.35c0.02-0.13,0.04-0.27,0.07-0.4c-2.59-0.54-5.18-1.08-7.76-1.62c-0.05-0.55-0.09-1.1-0.14-1.66
			c2.95-0.52,5.91-1.04,8.86-1.57c0.01-0.16,0.02-0.32,0.02-0.47c-2.83,0-5.67,0-9.66,0c1.43-1.35,2-1.89,2.48-2.34
			c-0.54-0.84-1.85-2-1.67-2.82c0.23-1.02,1.7-1.76,1.81-1.86c-0.29-1.88-0.53-3.45-0.77-5.01c5.47-0.28,10.94-0.57,16.41-0.83
			c8.4,0.38,16.78,0.75,25.17,1.12c0.01-0.35,0.01-0.71,0.02-1.06c-8.39,0-16.79,0-25.18,0C12.77,316.48,7.28,316.77,1.78,317.06z
			 M296.59,344.3c0.63-0.17,1.26-0.48,1.9-0.5c5.86-0.22,6.27-0.82,5.34-6.9c-0.37-2.42,0.47-3.45,3.37-3.15
			c4.87,0.5,5.95-1.04,4.81-5.69c-0.91-3.68,0.4-5.06,4.32-4.56c3.45,0.44,4.82-1.31,4-4.91c-0.38-1.67-0.48-3.41-0.55-3.9
			c3.51-1.87,8.09-3,8.31-4.7c0.47-3.66-1.9-6.94-6.38-6.67c0.21,2,1.04,4.15,0.38,5.64c-0.51,1.16-2.88,1.5-4.45,2.22
			c0.94,6.32-6.11,8.77-8.36,13.84c-0.02,0.05-1.48-0.53-1.86-0.67c-2.75,4.92-5.49,9.76-8.17,14.64c-0.95,1.73-1.73,3.54-2.61,5.31
			c-3.38,2.12-6.75,4.25-11.24,7.07c2.66,0.89,3.7,1.54,4.71,1.5c1.92-0.07,3.93-0.31,5.66-1.04c0.38-0.16-0.43-2.69-0.32-4.1
			C295.53,346.56,296.18,345.44,296.59,344.3z M356.96,353.92c-12.62,1.14-25.23,2.51-37.88,3.32c-5.1,0.33-10.28-0.7-15.43-0.83
			c-4.44-0.12-9.06,0.95-13.3,0.04c-4.95-1.06-9.45-2.42-14.66-0.75c-2.81,0.9-6.25-0.16-9.47-0.34c3.32-2.68,6.62-5.35,9.92-8.01
			c-0.23-0.34-0.46-0.68-0.7-1.03c-7.14,6.68-15.66,9.58-25.43,9.76c7.48-0.49,8.92-6.76,11.89-11.57
			c2.34-3.79,4.81-7.52,7.52-11.05c1.55-2.02,3.68-3.59,4.85-4.7c-0.09-2.04-0.9-4.31-0.13-5.73c4.98-9.11,10.28-18.05,15.54-27.01
			c0.67-1.15,1.68-2.1,2.53-3.15c0.27,0.12,0.53,0.24,0.8,0.36c-0.33,2.5-0.66,4.99-0.98,7.49c2.93-10.17,4.55-20.61,7.35-30.73
			c2.8-10.11,6.78-19.9,10.24-29.83c-0.39-0.29-0.79-0.57-1.18-0.86c-6.16,8.58-13.04,16.74-18.23,25.86
			c-3.83,6.73-6.05,14.57-7.95,22.17c-4.66,18.64-7.54,37.99-20.72,53.15c-6.55,7.54-13.2,15.08-23.93,17.51
			c-9.67,2.2-19.28,3.95-29.22,3.95c8.17,0.34,16.4,0.94,24.5,0.17c8.47-0.8,16.8-4.07,25.23-4.23c18.46-0.35,36.94,0.88,55.41,0.87
			c10.09-0.01,20.19-1.03,30.25-2c4.46-0.43,8.82-1.83,13.23-2.8c6.78,1.17,12.61-1,18.14-4.87c-4.38-4.31-34.81-8.76-41.81-6.77
			c6.37,0.74,13.73,1.42,21.04,2.54c1.97,0.3,5.14,1.76,5.28,2.98C359.86,349.75,357.96,351.89,356.96,353.92z M196.15,356.67
			c0.57,0.21,1.13,0.52,1.72,0.62c9.02,1.57,18.03,1.56,26.9-0.79c4.09-1.08,8.76-1.92,11.81-4.48c4.56-3.83,8.78-8.63,11.57-13.85
			c4.01-7.51,7.14-15.6,9.68-23.75c3.13-10.05,5.13-20.44,7.88-30.62c4.78-17.66,13.45-33.34,24.51-47.83
			c9.83-12.87,20.08-25.5,28.86-39.08c7.74-11.96,12.75-25.59,14.54-39.77c0.96-7.62,0.54-16.12-6.69-21.74
			c-2.82-2.19-6.08-3.81-8.96-5.94c-5.58-4.13-10.82-8.76-16.61-12.58c-6-3.96-10.16-3-13.61,3.17c-2.21,3.95-4.23,8.47-4.63,12.88
			c-1.73,19.15-2.76,38.36-4.18,57.55c-0.92,12.45-1.76,24.91-3.18,37.3c-1.54,13.5-4.33,26.94-10.91,38.88
			c-8.93,16.21-14.84,32.89-16.24,51.58c-1.25,16.63-11.72,28.24-26.32,35.21C214.35,357.23,205.27,358.42,196.15,356.67z
			 M29.72,360.48c17.42,3.07,35.01,0.44,51.05-4.59c15.6-4.89,28.38-13.36,37.85-26.4c5.48-7.55,9.78-15.97,14.39-24.13
			c8.59-15.22,22.17-26.31,32.73-39.89c9.85-12.67,18.63-25.94,24.17-41.18c6.57-18.08,13.11-36.19,20.19-54.07
			c6.14-15.48,14.8-29.63,26.62-41.43c5.07-5.06,11.54-8.71,17.95-13.44c-3.27,1.47-6.2,2.47-8.79,4.02
			c-5.58,3.33-10.84,7.2-16.5,10.38c-10.22,5.74-17.41,14.49-24.23,23.62c-0.6,0.81,0.27,2.72,0.56,4.8
			c6.47-11.7,13.71-21.07,24.76-26.97c-2.65,3.56-5.83,6.67-8.5,10.18c-4.81,6.31-10.12,12.43-13.74,19.4
			c-4.97,9.58-8.38,19.95-12.81,29.83c-6.72,15.02-13.73,29.9-20.62,44.84c-6.69,14.49-15.45,27.75-24.78,40.58
			c-4.21,5.79-10.37,10.14-14.72,15.85c-10.47,13.77-20.6,27.81-30.45,42.03c-6.31,9.11-14.9,15.26-24.86,18.8
			c-9.7,3.44-20.1,4.98-30.24,7.1c-2.17,0.45-4.58-0.43-6.87-0.33C38.49,359.67,34.11,360.13,29.72,360.48z M120.7,299.89
			c0.3,0.17,0.59,0.34,0.89,0.52c1.13-1.99,2.02-4.18,3.44-5.95c8.67-10.84,17.55-21.52,26.18-32.39c4.1-5.17,8.84-10.18,11.5-16.07
			c11.77-26,22.9-52.28,34.26-78.47c-9.41,9.32-18.43,18.84-26.79,28.91c-6.82,8.21-13.18,16.74-22.75,22.38
			c1.24-0.17,2.49-0.35,3.29-0.46c-3.14,7.91-6.52,15.57-9.25,23.47c-4.93,14.26-9.34,28.69-14.24,42.96
			C125.45,289.97,122.9,294.87,120.7,299.89z M130.67,353.29c0.15,0.4,0.31,0.81,0.46,1.21c4.54-1.07,9.04-2.35,13.63-3.17
			c18-3.19,28.4-14.56,34.87-30.94c4.11-10.4,8.67-20.74,14.27-30.38c6.03-10.39,14.09-19.58,20.23-29.92
			c8.71-14.66,14.76-30.46,18.19-47.34c3.71-18.23,7.75-36.45,12.92-54.3c3.86-13.31,7.67-27.04,17.97-37.46
			c0.7-0.7,0.98-1.82,1.45-2.74c-0.41-0.28-0.82-0.55-1.24-0.83c-3.46,4.66-8,8.86-10.17,14.06c-5.03,12.06-9.57,24.42-13.13,36.99
			c-5.9,20.84-9.91,42.28-19.83,61.77c-4.47,8.79-9.46,17.38-14.94,25.57c-6.43,9.62-14.46,18.24-20.3,28.17
			c-6.73,11.46-11.35,24.14-17.74,35.83C159.02,335,149.59,349.38,130.67,353.29z M137.16,233.47
			c-26.65,35.94-52.29,72.46-74.85,111.36c7.52-3.91,14.77-8.1,21.17-13.32c10.78-8.78,18.85-19.99,24.81-32.44
			c5.68-11.87,10.43-24.19,15.59-36.31c3.4-8,6.76-16.02,10.24-23.99C134.92,236.91,136.13,235.23,137.16,233.47z M83.91,358.62
			c1.14,0.51,1.99,1.22,2.85,1.22c12.2,0.03,24.46,0.78,36.57-0.3c14.64-1.31,29.1-4.1,43.93-3.83c5.92,0.11,12.47-0.9,17.73-3.47
			c13.68-6.7,18.83-19.87,21.78-33.69c2.55-11.96,5.46-23.59,11.46-34.42c7.57-13.67,14.88-27.51,21.65-41.59
			c3.05-6.34,4.51-13.45,6.69-20.21c-0.39-0.12-0.77-0.24-1.16-0.36c-1.13,3.18-2.29,6.35-3.39,9.54
			c-5.18,14.96-14.02,27.76-23.36,40.35c-4.4,5.93-8.83,12.2-11.43,19.01c-6.59,17.27-13.02,34.48-25.34,48.73
			c-1.17,1.35-1.66,3.34-2.95,4.51c-3.38,3.07-5.97,8.04-11.96,5.82c-9.98,5.33-21.12,4.53-31.83,5.98
			c-6.09,0.82-12.22,1.49-18.35,1.82c-7.28,0.39-14.71,1.21-21.82,0.14C91.06,357.28,87.78,356.64,83.91,358.62z M238.91,134.02
			c-0.13,0.09-0.59,0.27-0.85,0.61c-11.37,14.36-18.5,31-25.04,47.85c-6.11,15.74-10.83,32.05-17.46,47.56
			c-4.42,10.33-10.66,19.99-16.92,29.4c-5.44,8.19-11.78,15.84-18.22,23.29c-8.65,10-16.28,20.61-21.77,32.65
			c-4.84,10.6-10.51,20.65-19.22,28.57c-3.1,2.81-6.82,4.93-10.26,7.37c10.19-3.06,19.08-8.08,25.21-16.97
			c2.9-4.2,5.82-8.49,7.98-13.09c10.98-23.31,26.38-43.81,40.94-64.82c9.76-14.08,17.01-29.27,22.73-45.3
			c3.99-11.17,7.45-22.57,12.16-33.43C224.61,162.92,231.97,148.54,238.91,134.02z M197.5,348.71c7.43-5.18,11.08-12.93,13.31-21.15
			c5.21-19.18,9.45-38.63,20.6-55.62c6.05-9.22,12.32-18.39,15.14-29.28c2.02-7.79,4.15-15.56,5.78-23.43
			c3.36-16.29,6.08-32.71,9.72-48.94c2.76-12.3,5.98-24.55,10.04-36.47c2.81-8.26,7.4-15.91,11.19-23.83
			c-0.14-0.4-0.28-0.8-0.43-1.2c-2.89,1.41-5.91,2.62-8.65,4.28c-4.81,2.91-5.85,8.07-7.32,12.99c-1.67,5.6-3.58,11.12-5.39,16.68
			c0.42,0.16,0.85,0.32,1.27,0.48c2.77-10.3,6.78-19.94,14.12-27.86c0.04,1.55-0.42,2.88-0.92,4.19c-4,10.41-9.15,20.53-11.77,31.27
			c-5.46,22.32-9.88,44.9-14.18,67.48c-4.22,22.16-12.61,42.44-24.99,61.22c-6.19,9.4-11,19.65-12.68,30.8
			C210.22,324.32,205.49,337.03,197.5,348.71z M245.06,134c-0.23-0.11-0.46-0.22-0.68-0.33c-2.03,3.14-4.3,6.16-6.06,9.45
			c-11.04,20.66-20.13,42.13-27.22,64.5c-7.24,22.82-18.98,43.37-33.01,62.67c-5.83,8.02-12.01,15.85-17.06,24.34
			c-8.78,14.79-16.81,30.04-25.17,45.12c0.68-0.61,1.62-1.18,2.21-2.01c4-5.64,8.2-11.17,11.84-17.05
			c8.17-13.2,15.81-26.74,24.12-39.85c6.21-9.79,13.78-18.75,19.61-28.74c11.79-20.19,21.17-41.44,28.21-63.9
			c4.85-15.48,12.58-30.06,19.05-45.03C242.23,140.09,243.67,137.05,245.06,134z M67.12,44.64c146.75,0,293.51,0,440.26,0
			C360.63,39.78,213.87,43.5,67.12,44.64z M381.13,228.23c-0.57-0.3-1.14-0.59-1.71-0.89c-20.42,45.25-44.56,88.13-78.57,124.9
			c7.03,0.37,13.28-1.24,16.94-7.05c10.73-17.04,21.42-34.13,31.35-51.63c8.71-15.34,16.52-31.21,24.43-46.99
			C376.53,240.67,378.64,234.35,381.13,228.23z M351.85,196.61c-3.96,7.57-7.09,15.64-11.95,22.49
			c-15.47,21.8-26.24,45.36-31.11,71.79c-2.13,11.59-5.75,22.99-9.69,34.12c-2.3,6.48-6.59,12.25-9.98,18.35
			c3.77-3.34,7.24-6.94,9.64-11.14c7.61-13.32,11.3-27.99,14.32-42.93c2.05-10.13,3.77-20.69,8.09-29.91
			c7.11-15.19,16.18-29.48,24.48-44.11C348.96,209.42,352.02,203.52,351.85,196.61z M205.18,348.57c0.21,0.18,0.42,0.36,0.64,0.55
			c0.63-0.49,1.31-0.92,1.88-1.47c7.93-7.7,10.72-17.76,12.12-28.16c2.23-16.66,7.37-32.19,16.45-46.33
			c9.41-14.64,17.58-29.87,21.11-47.05c3.81-18.56,7.14-37.22,10.5-55.87c1.25-6.93,2-13.94,2.98-20.92
			c-1.04,1.21-1.61,2.55-1.86,3.94c-1.83,10-3.48,20.03-5.42,30.01c-2.76,14.21-5.5,28.43-8.68,42.55
			c-3.15,13.99-7.68,27.44-15.76,39.6c-8.37,12.6-15.5,25.86-18.8,40.92c-2.03,9.28-4.48,18.51-7.51,27.5
			C211.07,339.02,207.78,343.68,205.18,348.57z M306.11,273.49c0.44,0.26,0.88,0.53,1.32,0.79c1.16-2.02,2.56-3.95,3.43-6.09
			c2.54-6.24,4.24-12.9,7.4-18.78c9.2-17.09,19.35-33.68,28.36-50.87c6.51-12.42,8.14-25.92,5.22-39.24
			c-0.49,4.97-0.52,10.52-1.65,15.84c-4.35,20.51-15.26,37.92-26.16,55.45C315.81,243.83,308.43,257.69,306.11,273.49z M6.73,67.53
			c-0.05,0.2-0.1,0.4-0.15,0.59c83.08,0,166.16,0,249.25,0c0-0.2,0-0.4,0-0.59C172.8,67.53,89.77,67.53,6.73,67.53z M251.89,151.96
			c-0.3-0.11-0.6-0.23-0.9-0.34c-2.37,9.18-4.71,18.36-7.12,27.53c-1.58,6.02-3.73,11.94-4.82,18.04
			c-2.76,15.52-5.76,30.94-12.47,45.35c-3.09,6.63-6.36,13.17-10.17,21.03c1.73-1.55,2.51-2.07,3.05-2.77
			c9.99-13.2,14.8-28.6,18.49-44.41c3.37-14.4,6.53-28.84,9.68-43.29C249.16,166.08,250.48,159.01,251.89,151.96z M98.59,353.05
			c1.01-0.35,2.11-0.55,3-1.09c10.81-6.57,20.95-13.84,27.35-25.22c5.8-10.32,11.62-20.63,17.59-30.85c1.91-3.28,4.3-6.29,6.47-9.42
			c-3.34,2.14-6.14,4.74-8.11,7.86c-5.17,8.2-10.01,16.62-14.92,24.98C122,332.83,112.1,344.51,98.59,353.05z M227.55,181.64
			c-6.95,26.01-17.95,50.35-31.23,73.73C213.95,233.86,223.22,208.8,227.55,181.64z M337.15,140.52c8.05,15.85,0.32,32.16,1.33,48.2
			C346.26,172.45,350.13,156.27,337.15,140.52z M399.34,18.64c0,0.37,0.01,0.73,0.01,1.1c37.42,0,74.84,0,112.26,0
			c0-0.37-0.01-0.73-0.01-1.1C474.18,18.64,436.76,18.64,399.34,18.64z M205.06,281.48c-14.4,15.99-19.32,36.74-28.05,55.58
			C189.48,320.09,193.48,298.88,205.06,281.48z M37.21,137.8c0.03,0.65,0.07,1.3,0.1,1.95c31.63,0,63.26,0,94.89,0
			c0,0.14,0.01,0.27,0.01,0.41C100.55,139.38,68.88,138.59,37.21,137.8z M419.38,289.4c0.05,0.51,0.1,1.02,0.15,1.52
			c30.4,0.68,60.81,1.35,91.21,2.03c0.01-0.43,0.02-0.87,0.03-1.3C480.31,290.9,449.85,290.15,419.38,289.4z M510.94,267.26
			c0.01-0.54,0.03-1.07,0.04-1.61c-27.8-0.69-55.6-1.37-83.4-2.06c-0.01,0.46-0.02,0.92-0.03,1.38
			C455.34,265.74,483.14,266.5,510.94,267.26z M168.38,76.16c0.01-0.17,0.03-0.35,0.04-0.52c-27.71,0-55.42,0-83.13,0
			c0,0.17,0.01,0.35,0.01,0.52C113,76.16,140.69,76.16,168.38,76.16z M490.82,325.49c-0.04-0.38-0.09-0.76-0.13-1.14
			c-26.8-1.19-53.61-2.37-80.41-3.56c-0.02,0.52-0.04,1.03-0.06,1.55C437.09,323.39,463.96,324.44,490.82,325.49z M44.51,209.67
			c0.01,0.27,0.03,0.54,0.04,0.81c24.91,0,49.82,0,74.73,0c0-0.27,0.01-0.54,0.01-0.81C94.37,209.67,69.44,209.67,44.51,209.67z
			 M334.66,288.36c-0.51,2.37-0.37,4.69-1.45,5.95c-1.21,1.41-3.53,1.86-5.82,2.94c1.58,1.7,0.46,7.51,6.27,5.74
			c5.66-1.72-0.06-5.03,0.57-7.47c0.58-3.89,8.89,1.51,6.66-5.66C339.49,285.36,335.92,289.05,334.66,288.36z M138.03,31.62
			c0,0.36,0,0.73,0,1.09c25.77,0,51.54,0,77.31,0c0-0.36,0-0.73,0-1.09C189.58,31.62,163.8,31.62,138.03,31.62z M123.49,376.01
			c0.04,0.56,0.08,1.11,0.11,1.67c18.72-1.46,37.44-2.91,56.16-4.37c-0.03-0.42-0.05-0.83-0.08-1.25
			C160.95,373.38,142.22,374.7,123.49,376.01z M511.18,272.1c0.01-0.18,0.02-0.37,0.03-0.55c-16.36,0-32.71,0-49.07,0
			c0,0.18-0.01,0.37-0.01,0.55C478.48,272.1,494.83,272.1,511.18,272.1z M420.03,180.57c0.03,0.35,0.06,0.7,0.1,1.06
			c14.51,0,29.02,0,43.53,0c0-0.35,0-0.7-0.01-1.06C449.11,180.57,434.57,180.57,420.03,180.57z M63.18,101.52
			c0.02,0.18,0.04,0.36,0.07,0.54c15.43,0,30.86,0,46.29,0c0-0.18-0.01-0.36-0.01-0.54C94.08,101.52,78.63,101.52,63.18,101.52z
			 M33.27,94.59c0,0.32,0,0.65,0,0.97c12.76,0,25.52,0,38.27,0c0-0.32,0-0.65,0-0.97C58.78,94.59,46.02,94.59,33.27,94.59z
			 M369.31,181.34c-0.54,8.18-1.08,16.26-1.59,24.01C373.13,199.24,373.93,188.32,369.31,181.34z M245.98,285.77
			c-3.39,6.19-8.74,32.25-7.79,43.3C240.81,314.45,243.44,299.84,245.98,285.77z M467.96,280.6c-0.02,0.51-0.04,1.02-0.06,1.53
			c13.7,0.66,27.41,1.31,41.11,1.97c0.02-0.49,0.04-0.98,0.06-1.47C495.36,281.96,481.66,281.28,467.96,280.6z M411.86,327.82
			c0.01-0.37,0.03-0.74,0.04-1.11c-18.26-0.56-36.51-1.13-54.77-1.69c-0.01,0.36-0.03,0.72-0.04,1.08
			C375.34,326.67,393.6,327.25,411.86,327.82z M328.7,200.18c-8.48,10.73-16.96,21.46-25.44,32.18
			C313.65,223.1,322.37,212.55,328.7,200.18z M365.4,107.53c-0.01,0.32-0.01,0.63-0.02,0.95c12.12,0,24.24,0,36.37,0
			c0.02-0.32,0.03-0.63,0.05-0.95C389.66,107.53,377.53,107.53,365.4,107.53z M97.83,85.54c0.07,0.33,0.14,0.65,0.21,0.98
			c13.97,0,27.93,0,41.9,0c-0.01-0.33-0.02-0.65-0.03-0.98C125.89,85.54,111.86,85.54,97.83,85.54z M98.65,33.96
			c0-0.44,0-0.87,0-1.31c-12.43,0-24.87,0-37.3,0c0,0.44,0,0.87,0.01,1.31C73.78,33.96,86.21,33.96,98.65,33.96z M460.47,121.8
			c0.64-1.47,1.28-2.93,2.02-4.65c1.8,0,3.52,0,5.25,0c-5.29-0.2-6.19-3.77-6.64-8.34c0.57,6.13-3.26,6.1-7.58,6.08
			C458.23,115.23,459.83,117.7,460.47,121.8z M84.09,363.44c-0.01,0.46-0.02,0.92-0.03,1.38c2.52-0.29,5.05-0.91,7.55-0.8
			c7.75,0.34,15.49,0.99,23.24,1.39c0.68,0.03,1.41-0.93,2.87-1.97C105.65,363.44,94.87,363.44,84.09,363.44z M55.69,150.88
			c-0.05-0.29-0.1-0.59-0.15-0.88c-14.14,0-28.28,0-42.43,0c0,0.29,0,0.59,0,0.88C27.31,150.88,41.5,150.88,55.69,150.88z
			 M34.24,367.69c-0.06,0.3-0.12,0.6-0.18,0.91c11.55,0,23.1,0,34.65,0c-0.01-0.3-0.02-0.6-0.02-0.91
			C57.2,367.69,45.72,367.69,34.24,367.69z M269.23,284.44c0.4,0.15,0.8,0.29,1.21,0.44c3.08-8.46,6.17-16.92,9.25-25.37
			c-0.4-0.15-0.79-0.29-1.19-0.44C275.41,267.53,272.32,275.99,269.23,284.44z M336.4,352c0.01-0.44,0.02-0.87,0.03-1.31
			c-6.29,0.96-13.06-1.61-18.86,3.06C323.85,353.17,330.12,352.59,336.4,352z M40.11,297.56c0-0.21-0.01-0.42-0.01-0.63
			c-10.68,0-21.37,0-32.05,0c0,0.21,0,0.42,0.01,0.63C18.74,297.56,29.43,297.56,40.11,297.56z M510.94,237.06
			c0.02-0.49,0.03-0.98,0.05-1.47c-8.28,0-16.56,0-24.84,0c-0.01,0.09-0.02,0.18-0.03,0.28
			C494.38,236.27,502.66,236.67,510.94,237.06z M425.47,275.02c0,0.39,0,0.79,0,1.18c7.92,0,15.83,0,23.75,0c0-0.39,0-0.79,0-1.18
			C441.3,275.02,433.39,275.02,425.47,275.02z M68.37,125.7c0-0.29,0-0.58,0-0.86c-10,0-20,0-29.99,0c0,0.29,0,0.58,0,0.86
			C48.38,125.7,58.38,125.7,68.37,125.7z M156.19,23.06c0.02-0.32,0.04-0.64,0.06-0.96c-8.18,0-16.35,0-24.53,0
			c0,0.32,0.01,0.64,0.01,0.96C139.88,23.06,148.04,23.06,156.19,23.06z M238.26,26.75c-0.74,1.09-1.95,2.88-2.93,4.33
			c1.37,1.05,2.96,2.27,3.57,2.74c1.83-1.66,3.71-3.37,5.05-4.59C242.52,28.6,240.33,27.65,238.26,26.75z M357.84,194.27
			c3.27-8.31,4.15-16.88,2.45-25.07C359.52,177.11,358.69,185.57,357.84,194.27z M337.39,280.3c3.59,1.91,6.05,3.23,8.51,4.54
			c0.38-0.4,0.77-0.8,1.15-1.21c-0.36-1.79-0.71-3.59-0.96-4.84C343.51,279.24,341.32,279.62,337.39,280.3z M462.24,198.24
			c1.65-1.17,3.32-2.36,4.93-3.51c-1.96-0.91-3.95-1.83-5.47-2.54c-1.51,1.28-2.99,2.55-3.95,3.37
			C459.33,196.51,461,197.5,462.24,198.24z M174.48,362.74c0-0.17,0-0.33,0-0.5c-8.52,0-17.04,0-25.56,0c0,0.17,0,0.33,0,0.5
			C157.44,362.74,165.96,362.74,174.48,362.74z M492.43,277.59c5.84,0.44,11.69,0.88,17.53,1.31
			C504.27,275.84,498.25,277.4,492.43,277.59z M113.38,192.43c1.49,0.96,3.34,2.14,5.04,3.24c0.75-0.86,1.89-2.15,2.59-2.94
			c-1.3-1.05-2.52-2.04-3.76-3.05C116.25,190.39,114.66,191.51,113.38,192.43z M196.85,121.78c0-1.95,0-4.11,0-5.36
			c-1.74-0.17-3.88-0.39-5.64-0.56c0.51,1.42,1.1,3.07,1.7,4.75C194.22,121,195.92,121.51,196.85,121.78z"/>
		<path class="st0" d="M386.45,347.47c4.35,0.59,8.84,0.66,13.01,1.87c12.88,3.72,25.84,4.13,39.1,2.78
			c18.99-1.93,38.02-3.48,57.12-0.59c5.84,0.88,11.84,0.76,17.9,1.11c0,4.31,0,7.97,0,11.83c-8.64-1.63-16.77-3.87-25.04-4.57
			c-12.16-1.04-24.46-1.87-36.61-1.22c-20.62,1.1-40.87,0.52-60.46-6.78c-1.9-0.71-3.73-1.61-5.59-2.42
			C386.08,348.81,386.27,348.14,386.45,347.47z"/>
		<path class="st0" d="M33.22,346.65c-10.52,2.15-21.04,4.29-31.57,6.44c-0.36-0.84-0.73-1.68-1.09-2.51
			c1.39-0.89,2.7-2.33,4.2-2.56c7.51-1.17,15.05-2.19,22.62-2.89c1.82-0.17,3.78,1.09,5.68,1.68
			C33.07,346.8,33.22,346.65,33.22,346.65z"/>
	</g>
</g>
</svg>
