<!-- Generator: Adobe Illustrator 24.1.0, SVG Export Plug-In  -->
<svg version="1.1" xmlns="http://www.w3.org/2000/svg" xmlns:xlink="http://www.w3.org/1999/xlink" x="0px" y="0px" width="54.21px"
	 height="32.1px" viewBox="0 0 54.21 32.1" style="enable-background:new 0 0 54.21 32.1;" xml:space="preserve">
<defs>
</defs>
<g>
	<path d="M49.54,18.07c0.33-0.52,0.69-0.88,1.07-1.11c0.39-0.22,0.85-0.33,1.39-0.33c0.61,0,1.13,0.22,1.56,0.65
		c0.43,0.43,0.65,0.96,0.65,1.56c0,0.77-0.29,1.58-0.86,2.43s-1.41,1.68-2.51,2.5c-4.03,2.93-7.64,5.05-10.83,6.36
		c-3.19,1.31-6.25,1.97-9.18,1.97c-3.84,0-7.03-0.93-9.54-2.78c-2.52-1.85-3.78-4.16-3.78-6.93c0-1.43,0.41-2.64,1.23-3.62
		s2.06-1.75,3.73-2.29c-0.96-1.22-2.04-2.16-3.25-2.81c-1.21-0.66-2.55-1.03-4.03-1.12c-0.09,2.34-0.94,4.42-2.55,6.24
		c-1.61,1.82-4.01,3.43-7.22,4.83c0.28,1.01,0.7,1.76,1.27,2.27c0.56,0.5,1.27,0.76,2.11,0.76c0.52,0,1.04-0.13,1.58-0.4
		c0.54-0.27,1.07-0.66,1.58-1.18c0.09,0.38,0.16,0.75,0.21,1.12c0.05,0.38,0.07,0.74,0.07,1.09c0,1.36-0.42,2.46-1.27,3.29
		c-0.84,0.83-1.96,1.25-3.34,1.25c-1.62,0-2.95-0.53-3.99-1.58s-1.8-2.64-2.27-4.75L0,24.89c0.14-0.52,0.33-1.01,0.58-1.49
		c0.25-0.48,0.56-0.93,0.93-1.35c0.73-3.21,2.01-5.7,3.85-7.45s4.4-2.93,7.68-3.52c-0.84-1.29-2.51-2.23-4.99-2.81
		C7.56,8.14,7.17,8.05,6.89,7.98C5.46,7.61,4.44,7.11,3.81,6.49C3.19,5.87,2.88,5.05,2.88,4.04c0-1.24,0.52-2.23,1.55-2.95
		C5.46,0.36,6.87,0,8.65,0C8.25,0.38,7.97,0.74,7.8,1.09S7.56,1.82,7.56,2.21c0,0.66,0.2,1.26,0.6,1.81
		c0.4,0.55,1.02,1.11,1.86,1.67c0.12,0.07,0.32,0.2,0.6,0.39c2.39,1.55,3.9,3.14,4.54,4.78c1.71,0.05,3.29,0.39,4.75,1.04
		c1.45,0.65,2.81,1.62,4.08,2.94c-0.49-1.01-0.87-1.94-1.12-2.79c-0.26-0.86-0.39-1.63-0.39-2.34c0-1.97,0.67-3.55,2.02-4.75
		s3.15-1.79,5.4-1.79c2.72,0,4.95,0.79,6.68,2.37s2.94,3.91,3.62,6.98c0.19,0.84,0.42,2.03,0.7,3.55c1.08,5.51,2.77,8.26,5.06,8.26
		c1.31,0,2.33-0.35,3.04-1.04c0.71-0.69,1.07-1.69,1.07-3.01c-0.02-0.35-0.08-0.71-0.16-1.07C49.82,18.85,49.7,18.47,49.54,18.07z
		 M13.39,12.62c-2.48,0.38-4.39,1.21-5.71,2.51s-2.2,3.19-2.62,5.68c2.74-0.8,4.8-1.87,6.17-3.22
		C12.6,16.25,13.32,14.59,13.39,12.62z"/>
</g>
</svg>
