<svg version="1.1" xmlns="http://www.w3.org/2000/svg" xmlns:xlink="http://www.w3.org/1999/xlink" x="0px" y="0px"
	 width="376.66px" height="376.66px" viewBox="0 0 376.66 376.66"
	 style="overflow:visible;enable-background:new 0 0 376.66 376.66;" xml:space="preserve">
<defs>
</defs>
<path d="M370.42,148.72h-19.83c-4.1-16.85-10.74-32.7-19.52-47.11l14.03-14.03c2.44-2.44,2.44-6.38,0-8.82l-47.2-47.2
	c-2.44-2.44-6.38-2.44-8.82,0l-14.03,14.03c-14.41-8.78-30.26-15.42-47.11-19.52V6.24c0-3.44-2.79-6.24-6.24-6.24h-66.75
	c-3.44,0-6.24,2.79-6.24,6.24v19.83c-16.85,4.1-32.7,10.74-47.11,19.52L87.58,31.56c-2.44-2.44-6.38-2.44-8.82,0l-47.2,47.2
	c-2.44,2.44-2.44,6.38,0,8.82l14.03,14.03c-8.78,14.41-15.42,30.26-19.52,47.11H6.24c-3.44,0-6.24,2.79-6.24,6.24v66.75
	c0,3.44,2.79,6.24,6.24,6.24h19.83c4.1,16.85,10.74,32.7,19.52,47.11l-14.03,14.03c-2.44,2.44-2.44,6.38,0,8.82l47.2,47.2
	c2.44,2.44,6.38,2.44,8.82,0l14.03-14.03c14.41,8.78,30.26,15.42,47.11,19.52v19.83c0,3.44,2.79,6.24,6.24,6.24h66.75
	c3.44,0,6.24-2.79,6.24-6.24v-19.83c16.85-4.1,32.7-10.74,47.11-19.52l14.03,14.03c2.44,2.44,6.38,2.44,8.82,0l47.2-47.2
	c2.44-2.44,2.44-6.38,0-8.82l-14.03-14.03c8.78-14.41,15.42-30.26,19.52-47.11h19.83c3.44,0,6.24-2.79,6.24-6.24v-66.75
	C376.66,151.51,373.87,148.72,370.42,148.72z M189.15,282.54c-52.68,0.45-95.48-42.35-95.03-95.03
	c0.44-51.15,42.24-92.95,93.39-93.39c52.68-0.45,95.48,42.35,95.03,95.03C282.1,240.3,240.3,282.1,189.15,282.54z"/>
</svg>
