<svg version="1.1" xmlns="http://www.w3.org/2000/svg" xmlns:xlink="http://www.w3.org/1999/xlink" x="0px" y="0px"
	 width="492.16px" height="458.28px" viewBox="0 0 492.16 458.28"
	 style="overflow:visible;enable-background:new 0 0 492.16 458.28;" xml:space="preserve">
<defs>
</defs>
<g id="_x37_9A6h3.tif_2_">
	<g>
		<path d="M54.89,414.55h297.19c3.77,0,6.83-3.06,6.83-6.83v-50.35c0-35.1,0.39-70.06,0.39-104.43c0-18.45,11.87-27.86,25.69-38.14
			c4.82-3.59,20.57-15.57,20.57-15.57l-0.05,14.4c0.09,68.98,0.16,137.96-0.05,206.94c-0.08,26.36-11.22,37.54-37.47,37.58
			c-110.7,0.16-221.4,0.17-332.1,0.06c-23.72-0.02-35.72-11.86-35.76-35.66C-0.05,311.22-0.04,199.88,0.14,88.54
			c0.04-22.89,11.34-36.79,33.04-37.13C92.84,50.49,159.9,51,222.89,51c-19.18,8.47-46.98,34.65-61.16,45.19
			c-4.24,3.15-11.35,3.05-17.15,3.09c-35.15,0.24-54.25,0.14-89.63,0.13c-3.83,0-6.95,3.11-6.95,6.94v301.32
			C48.02,411.47,51.1,414.55,54.89,414.55z"/>
		<path d="M359.92,51.91c0-20.08,0-28.03,0-51.91c45.81,36.26,88.48,61.03,132.24,95.65c-43.41,34.58-85.71,68.28-130.61,104.04
			c0-17.42,0-32.58,0-49.82c-112.35-6.8-158.75,27.36-212.25,172.04c-4.28,9.42-8.76,13.69-16.96,15.76
			c-9.8,2.48-24.34,0.26-29.81-9.74c-6.1-11.16,1.53-42.24,6.51-66.78c10.03-49.39,28.3-94.61,60.81-134.98
			c44.85-55.71,105.69-74.54,174.33-74.43C348.94,51.74,359.92,51.91,359.92,51.91z"/>
	</g>
</g>
</svg>
